<?xml version="1.0" encoding="utf-8"?>
<!-- Svg Vector Icons : http://www.onlinewebfonts.com/icon -->
<!DOCTYPE svg PUBLIC "-//W3C//DTD SVG 1.1//EN" "http://www.w3.org/Graphics/SVG/1.1/DTD/svg11.dtd">
<svg fill="#fff" version="1.1" xmlns="http://www.w3.org/2000/svg" xmlns:xlink="http://www.w3.org/1999/xlink" x="0px" y="0px" viewBox="0 0 1000 1000" enable-background="new 0 0 1000 1000" xml:space="preserve">
<metadata> Svg Vector Icons : http://www.onlinewebfonts.com/icon </metadata>
<g><path d="M401.2,500L30.4,870.9c-26.9,26.9-27,71.3,0.2,98.5c27.5,27.5,71.4,27.4,98.5,0.2L500,598.8l370.9,370.9c26.9,26.9,71.3,27,98.5-0.2c27.5-27.5,27.4-71.4,0.2-98.5L598.8,500l370.9-370.9c26.9-26.9,27-71.3-0.2-98.5C941.9,3.1,898,3.2,870.9,30.4L500,401.2L129.1,30.4c-26.9-26.9-71.3-27-98.5,0.2C3.1,58.1,3.2,102,30.4,129.1L401.2,500L401.2,500z"/></g>
</svg>