<svg id="_530_search_engine_outline" data-name="#530_search_engine_outline" xmlns="http://www.w3.org/2000/svg" viewBox="0 0 400 300" width="406" height="306" class="illustration styles_illustrationTablet__1DWOa"><rect x="76.72" y="69.22" width="246.56" height="161.55" fill="#fff" data-darkreader-inline-fill="" style="--darkreader-inline-fill:#e8e6e3;"></rect><path d="M323.28,231.78H76.72a1,1,0,0,1-1-1V69.22a1,1,0,0,1,1-1H323.28a1,1,0,0,1,1,1V230.78A1,1,0,0,1,323.28,231.78Zm-245.56-2H322.28V70.22H77.72Z" fill="#093f68" data-darkreader-inline-fill="" style="--darkreader-inline-fill:#92cbf6;"></path><rect x="76.72" y="69.22" width="246.56" height="20" fill="#68e1fd" data-darkreader-inline-fill="" style="--darkreader-inline-fill:#63e0fd;"></rect><path d="M323.28,90.23H76.72a1,1,0,0,1-1-1v-20a1,1,0,0,1,1-1H323.28a1,1,0,0,1,1,1v20A1,1,0,0,1,323.28,90.23Zm-245.56-2H322.28v-18H77.72Z" fill="#093f68" data-darkreader-inline-fill="" style="--darkreader-inline-fill:#92cbf6;"></path><path d="M166.88,79.08V74.25a5,5,0,0,0-5-5H119.34a5,5,0,0,0-5,5v4.83a3.42,3.42,0,0,1-3.42,3.41H76.72v20.42H323.28V82.49h-153A3.41,3.41,0,0,1,166.88,79.08Z" fill="#fff" data-darkreader-inline-fill="" style="--darkreader-inline-fill:#e8e6e3;"></path><path d="M323.28,103.91H76.72a1,1,0,0,1-1-1V82.5a1,1,0,0,1,1-1h34.17a2.43,2.43,0,0,0,2.42-2.42V74.25a6,6,0,0,1,6-6h42.51a6,6,0,0,1,6,6v4.83a2.42,2.42,0,0,0,2.41,2.42h153a1,1,0,0,1,1,1v20.41A1,1,0,0,1,323.28,103.91Zm-245.56-2H322.28V83.5h-152a4.43,4.43,0,0,1-4.41-4.42V74.25a4,4,0,0,0-4-4H119.34a4,4,0,0,0-4,4v4.83a4.43,4.43,0,0,1-4.42,4.42H77.72Z" fill="#093f68" data-darkreader-inline-fill="" style="--darkreader-inline-fill:#92cbf6;"></path><path d="M103.94,93.27H97.75a1,1,0,0,1,0-2h6.19a1,1,0,0,1,0,2Z" fill="#dfeaef" data-darkreader-inline-fill="" style="--darkreader-inline-fill:#c7dae3;"></path><path d="M102,96.53a1,1,0,0,1-.68-.27,1,1,0,0,1,0-1.41l2.38-2.56-2.36-2.35a1,1,0,0,1,1.42-1.42l3,3a1,1,0,0,1,0,1.39l-3,3.26A1,1,0,0,1,102,96.53Z" fill="#dfeaef" data-darkreader-inline-fill="" style="--darkreader-inline-fill:#c7dae3;"></path><path d="M278.2,98.7H117.55A5.56,5.56,0,0,1,112,93.15v-.92a5.56,5.56,0,0,1,5.55-5.55H278.2a5.56,5.56,0,0,1,5.55,5.55v.92A5.56,5.56,0,0,1,278.2,98.7Zm-160.65-10A3.56,3.56,0,0,0,114,92.23v.92a3.56,3.56,0,0,0,3.55,3.55H278.2a3.55,3.55,0,0,0,3.55-3.55v-.92a3.55,3.55,0,0,0-3.55-3.55Z" fill="#dfeaef" data-darkreader-inline-fill="" style="--darkreader-inline-fill:#c7dae3;"></path><circle cx="94.37" cy="76.16" r="2.79" fill="#ffbc0e" data-darkreader-inline-fill="" style="--darkreader-inline-fill:#ffc223;"></circle><path d="M94.37,80a3.79,3.79,0,1,1,3.79-3.79A3.79,3.79,0,0,1,94.37,80Zm0-5.58a1.79,1.79,0,1,0,1.79,1.79A1.79,1.79,0,0,0,94.37,74.37Z" fill="#093f68" data-darkreader-inline-fill="" style="--darkreader-inline-fill:#92cbf6;"></path><circle cx="103.14" cy="76.16" r="2.79" fill="#70cc40" data-darkreader-inline-fill="" style="--darkreader-inline-fill:#7dd151;"></circle><path d="M103.14,80a3.79,3.79,0,1,1,3.79-3.79A3.79,3.79,0,0,1,103.14,80Zm0-5.58a1.79,1.79,0,1,0,1.79,1.79A1.79,1.79,0,0,0,103.14,74.37Z" fill="#093f68" data-darkreader-inline-fill="" style="--darkreader-inline-fill:#92cbf6;"></path><path d="M315.88,89.48H304.47a1,1,0,0,1,0-2h11.41a1,1,0,0,1,0,2Z" fill="#dfeaef" data-darkreader-inline-fill="" style="--darkreader-inline-fill:#c7dae3;"></path><path d="M315.88,93.2H304.47a1,1,0,0,1,0-2h11.41a1,1,0,0,1,0,2Z" fill="#dfeaef" data-darkreader-inline-fill="" style="--darkreader-inline-fill:#c7dae3;"></path><path d="M315.88,96.92H304.47a1,1,0,0,1,0-2h11.41a1,1,0,0,1,0,2Z" fill="#dfeaef" data-darkreader-inline-fill="" style="--darkreader-inline-fill:#c7dae3;"></path><path d="M286.46,182a15.65,15.65,0,0,1-15.64,15.65H129.18a15.65,15.65,0,0,1,0-31.29H270.82A15.64,15.64,0,0,1,286.46,182Z" fill="#68e1fd" data-darkreader-inline-fill="" style="--darkreader-inline-fill:#63e0fd;"></path><path d="M270.82,198.63H129.18a16.64,16.64,0,0,1-11.76-28.41,16.5,16.5,0,0,1,11.76-4.88H270.82a16.65,16.65,0,0,1,0,33.29ZM129.18,167.34a14.65,14.65,0,0,0,0,29.29H270.82a14.65,14.65,0,0,0,0-29.29Z" fill="#093f68" data-darkreader-inline-fill="" style="--darkreader-inline-fill:#92cbf6;"></path><path d="M286.46,182a15.65,15.65,0,0,1-15.64,15.65H253.44V166.34h17.38A15.64,15.64,0,0,1,286.46,182Z" fill="#fff" data-darkreader-inline-fill="" style="--darkreader-inline-fill:#e8e6e3;"></path><path d="M270.82,198.63H253.44a1,1,0,0,1-1-1V166.34a1,1,0,0,1,1-1h17.38a16.65,16.65,0,0,1,0,33.29Zm-16.38-2h16.38a14.65,14.65,0,0,0,0-29.29H254.44Z" fill="#093f68" data-darkreader-inline-fill="" style="--darkreader-inline-fill:#92cbf6;"></path><path d="M266,185.08a6.54,6.54,0,1,1,6.54-6.54A6.54,6.54,0,0,1,266,185.08ZM266,174a4.54,4.54,0,1,0,4.54,4.54A4.54,4.54,0,0,0,266,174Z" fill="#093f68" data-darkreader-inline-fill="" style="--darkreader-inline-fill:#92cbf6;"></path><path d="M275.52,190.16a1,1,0,0,1-.72-.31l-5.4-5.63a1,1,0,1,1,1.44-1.39l5.41,5.63a1,1,0,0,1,0,1.42A1.05,1.05,0,0,1,275.52,190.16Z" fill="#093f68" data-darkreader-inline-fill="" style="--darkreader-inline-fill:#92cbf6;"></path><path d="M160.62,135a3.86,3.86,0,0,0-1.8-1.24,6.44,6.44,0,0,0-2.15-.4,5.88,5.88,0,0,0-1.23.14,5,5,0,0,0-1.19.43,2.79,2.79,0,0,0-.91.79,2,2,0,0,0-.34,1.19,2,2,0,0,0,.83,1.72,8.21,8.21,0,0,0,2.12,1c.85.28,1.77.56,2.75.84a11.37,11.37,0,0,1,2.74,1.19,6.51,6.51,0,0,1,2.12,2.06,6.28,6.28,0,0,1,.84,3.46,8,8,0,0,1-.77,3.61,7.52,7.52,0,0,1-2.08,2.55,8.7,8.7,0,0,1-3.05,1.5,14,14,0,0,1-8.13-.24,11.24,11.24,0,0,1-3.85-2.38l3.89-4.27a5.55,5.55,0,0,0,2.11,1.73,6,6,0,0,0,2.64.62,6.3,6.3,0,0,0,1.35-.16,4.55,4.55,0,0,0,1.22-.47,2.55,2.55,0,0,0,.88-.81,2,2,0,0,0,.33-1.15,2.08,2.08,0,0,0-.86-1.77,7.72,7.72,0,0,0-2.15-1.1c-.86-.3-1.79-.61-2.8-.91a12.48,12.48,0,0,1-2.79-1.22,6.73,6.73,0,0,1-2.15-2,5.74,5.74,0,0,1-.86-3.32,7.38,7.38,0,0,1,.79-3.5,7.63,7.63,0,0,1,2.09-2.52,9.19,9.19,0,0,1,3-1.52,12.3,12.3,0,0,1,3.53-.51,13.81,13.81,0,0,1,4.06.6,9.26,9.26,0,0,1,3.53,2Z" fill="#093f68" data-darkreader-inline-fill="" style="--darkreader-inline-fill:#92cbf6;"></path><path d="M183.88,150.75a8.33,8.33,0,0,1-3.19,2.48,9.55,9.55,0,0,1-4,.87,10.67,10.67,0,0,1-3.69-.63,8.84,8.84,0,0,1-3-1.8,8.5,8.5,0,0,1-2-2.81,9.5,9.5,0,0,1,0-7.35,8.5,8.5,0,0,1,2-2.81,8.69,8.69,0,0,1,3-1.8,10.67,10.67,0,0,1,3.69-.63,8.37,8.37,0,0,1,3.3.63,6.81,6.81,0,0,1,2.52,1.8,8.13,8.13,0,0,1,1.59,2.81,11.45,11.45,0,0,1,.56,3.67v1.65H172.51a4.18,4.18,0,0,0,1.36,2.39,3.85,3.85,0,0,0,2.59.9,4,4,0,0,0,2.19-.58,5.92,5.92,0,0,0,1.55-1.49Zm-4.44-7.49a3,3,0,0,0-.88-2.27,3.12,3.12,0,0,0-2.34-1,3.82,3.82,0,0,0-2.68,1,3.15,3.15,0,0,0-.73,1,3.22,3.22,0,0,0-.3,1.21Z" fill="#093f68" data-darkreader-inline-fill="" style="--darkreader-inline-fill:#92cbf6;"></path><path d="M198.53,151.55h-.07a5,5,0,0,1-2.32,2,8.14,8.14,0,0,1-3.07.59,8,8,0,0,1-2.29-.33,5.68,5.68,0,0,1-1.94-1,4.84,4.84,0,0,1-1.33-1.64,5.09,5.09,0,0,1-.49-2.27,5.15,5.15,0,0,1,.55-2.49,5,5,0,0,1,1.46-1.68,7.59,7.59,0,0,1,2.12-1,16.41,16.41,0,0,1,2.47-.54,21.91,21.91,0,0,1,2.55-.21l2.36,0a2.69,2.69,0,0,0-1-2.22,3.58,3.58,0,0,0-2.36-.83,5,5,0,0,0-2.36.55,6.39,6.39,0,0,0-1.9,1.48l-2.8-2.87a9.52,9.52,0,0,1,3.43-2,12,12,0,0,1,4.05-.68,10.75,10.75,0,0,1,3.8.57,5.58,5.58,0,0,1,2.38,1.7,6.7,6.7,0,0,1,1.24,2.74,18.29,18.29,0,0,1,.35,3.76v8.64h-4.83Zm-1.29-5.32c-.4,0-.9,0-1.49.06a7.37,7.37,0,0,0-1.71.29,3.82,3.82,0,0,0-1.4.74,1.67,1.67,0,0,0-.58,1.36,1.51,1.51,0,0,0,.8,1.4,3.43,3.43,0,0,0,1.68.46,5.26,5.26,0,0,0,1.49-.21,4.44,4.44,0,0,0,1.28-.6,2.89,2.89,0,0,0,.89-1,2.81,2.81,0,0,0,.33-1.4v-1.12Z" fill="#093f68" data-darkreader-inline-fill="" style="--darkreader-inline-fill:#92cbf6;"></path><path d="M206.64,136.69h5.25v2.72H212a6.48,6.48,0,0,1,2-2.36,5.09,5.09,0,0,1,2.91-.78l.91,0a4.33,4.33,0,0,1,.84.14v4.79a9.82,9.82,0,0,0-1.11-.26,6.9,6.9,0,0,0-1.13-.09,5.55,5.55,0,0,0-2.38.42,3.22,3.22,0,0,0-1.35,1.17,4.56,4.56,0,0,0-.61,1.81,17.87,17.87,0,0,0-.14,2.3v7.1h-5.25Z" fill="#093f68" data-darkreader-inline-fill="" style="--darkreader-inline-fill:#92cbf6;"></path><path d="M231.76,142.18a3,3,0,0,0-1.09-.93,3.23,3.23,0,0,0-1.5-.37,4,4,0,0,0-3.1,1.19,5,5,0,0,0,0,6.23,4,4,0,0,0,3.1,1.19,2.79,2.79,0,0,0,1.5-.39,4.59,4.59,0,0,0,1.09-.91l3.46,3.64a6.73,6.73,0,0,1-2.89,1.77,11,11,0,0,1-3.16.5,10.67,10.67,0,0,1-3.69-.63,8.84,8.84,0,0,1-3-1.8,8.5,8.5,0,0,1-2-2.81,9.62,9.62,0,0,1,0-7.35,8.5,8.5,0,0,1,2-2.81,8.69,8.69,0,0,1,3-1.8,10.67,10.67,0,0,1,3.69-.63,11,11,0,0,1,3.16.5,6.73,6.73,0,0,1,2.89,1.77Z" fill="#093f68" data-darkreader-inline-fill="" style="--darkreader-inline-fill:#92cbf6;"></path><path d="M242.35,127.24V139h.07a3.37,3.37,0,0,1,.6-1,5.07,5.07,0,0,1,1-.87,5.3,5.3,0,0,1,1.4-.63,6.12,6.12,0,0,1,1.75-.24,7.22,7.22,0,0,1,3.22.61,4.66,4.66,0,0,1,1.9,1.69,6.79,6.79,0,0,1,.93,2.56,19.72,19.72,0,0,1,.25,3.18v9.37h-5.25v-8.32c0-.49,0-1,0-1.52a4.73,4.73,0,0,0-.32-1.45,2.45,2.45,0,0,0-.8-1.09,2.5,2.5,0,0,0-1.56-.42,3.26,3.26,0,0,0-1.64.37,2.51,2.51,0,0,0-1,1,3.86,3.86,0,0,0-.44,1.38,11.86,11.86,0,0,0-.11,1.61v8.46h-5.24V127.24Z" fill="#093f68" data-darkreader-inline-fill="" style="--darkreader-inline-fill:#92cbf6;"></path><circle cx="85.6" cy="76.16" r="2.79" fill="#f56132" data-darkreader-inline-fill="" style="--darkreader-inline-fill:#f66b3f;"></circle><path d="M85.6,80a3.79,3.79,0,1,1,3.78-3.79A3.79,3.79,0,0,1,85.6,80Zm0-5.58a1.79,1.79,0,1,0,1.78,1.79A1.79,1.79,0,0,0,85.6,74.37Z" fill="#093f68" data-darkreader-inline-fill="" style="--darkreader-inline-fill:#92cbf6;"></path><path d="M90.09,93.27H83.9a1,1,0,0,1,0-2h6.19a1,1,0,0,1,0,2Z" fill="#dfeaef" data-darkreader-inline-fill="" style="--darkreader-inline-fill:#c7dae3;"></path><path d="M85.85,96.53a1,1,0,0,1-.73-.32l-3-3.26a1,1,0,0,1,0-1.39l3-3a1,1,0,0,1,1.42,1.42L84.2,92.29l2.38,2.56a1,1,0,0,1-.73,1.68Z" fill="#dfeaef" data-darkreader-inline-fill="" style="--darkreader-inline-fill:#c7dae3;"></path></svg>